<svg width="80" height="15" viewBox="0 0 80 15" fill="none" xmlns="http://www.w3.org/2000/svg">
<path fill-rule="evenodd" clip-rule="evenodd" d="M57.7037 0.0575313C56.888 0.0989059 56.1747 0.147601 56.1184 0.165848C56.0622 0.183989 56.4073 0.228864 56.8855 0.265465C57.7524 0.331877 57.7511 0.332089 56.4252 0.364764C55.694 0.382799 54.6124 0.435101 54.0217 0.480931C53.2787 0.538643 53.6569 0.549146 55.2491 0.514986C58.8879 0.437011 62.6243 0.368053 63.1048 0.369857C63.373 0.370917 63.5208 0.329967 63.4823 0.265465C63.4408 0.195765 64.3356 0.159376 66.0904 0.159376C67.9866 0.159376 68.7417 0.192794 68.693 0.274589C68.6498 0.347153 68.7138 0.380677 68.866 0.364976C68.9988 0.351185 69.1766 0.368265 69.261 0.402956C69.3453 0.437541 70.1047 0.516895 70.9485 0.579276C71.7923 0.641656 72.6553 0.734802 72.8662 0.786255C73.0772 0.837602 73.2497 0.840148 73.2497 0.791878C73.2497 0.671361 72.9789 0.601236 71.4088 0.314902C71.2119 0.279044 70.8437 0.200327 70.5906 0.140068C70.0452 0.0102157 59.9184 -0.0546045 57.7037 0.0575313ZM26.5605 0.169242C26.0798 0.228334 26.0936 0.233108 26.7906 0.248809C27.5247 0.265253 27.7466 0.220377 27.302 0.145267C27.1754 0.123837 26.8417 0.134658 26.5605 0.169242ZM25.4354 0.221438C25.3229 0.239579 24.8282 0.285091 24.336 0.322541C23.8438 0.35999 23.441 0.425765 23.441 0.468837C23.441 0.511803 23.5906 0.528035 23.7734 0.504801C24.0283 0.472444 24.07 0.488676 23.9524 0.574608C23.8358 0.659691 23.9095 0.683985 24.2593 0.675604C24.679 0.665632 24.6925 0.657569 24.4127 0.583731L24.1058 0.502786L24.4809 0.490161C24.6871 0.483265 24.8712 0.520184 24.89 0.572273C24.9093 0.62606 25.2989 0.632638 25.7934 0.587444C26.7311 0.501937 26.7148 0.461093 25.7423 0.458865C25.4048 0.458016 25.2437 0.43404 25.3843 0.405502C25.6259 0.356489 25.953 0.141766 25.7372 0.173805C25.6838 0.181761 25.5479 0.203191 25.4354 0.221438ZM60.6996 0.237776C60.3503 0.258463 59.752 0.258569 59.37 0.238094C58.9879 0.217725 59.2736 0.200751 60.0049 0.200645C60.7362 0.200433 61.0488 0.217195 60.6996 0.237776ZM62.1272 0.229607C62.0569 0.2591 61.9418 0.2591 61.8715 0.229607C61.8012 0.20022 61.8587 0.176138 61.9993 0.176138C62.1399 0.176138 62.1975 0.20022 62.1272 0.229607ZM69.9002 0.335696C69.8299 0.365188 69.7149 0.365188 69.6445 0.335696C69.5742 0.306309 69.6317 0.282227 69.7723 0.282227C69.913 0.282227 69.9706 0.306309 69.9002 0.335696ZM70.6181 0.335059C70.5488 0.364127 70.4107 0.365931 70.3112 0.338985C70.2117 0.312038 70.2684 0.288274 70.4371 0.286152C70.6059 0.284031 70.6873 0.305991 70.6181 0.335059ZM26.8417 0.444649C26.9401 0.471383 27.1013 0.471383 27.1997 0.444649C27.2981 0.418021 27.2176 0.396166 27.0207 0.396166C26.8238 0.396166 26.7434 0.418021 26.8417 0.444649ZM27.8134 0.441784C27.8837 0.471277 27.9988 0.471277 28.0691 0.441784C28.1394 0.412398 28.0818 0.388316 27.9412 0.388316C27.8006 0.388316 27.7431 0.412398 27.8134 0.441784ZM8.23313 0.617043C8.20367 0.66648 7.66682 0.69714 7.04007 0.685152C5.90286 0.663616 3.91102 0.819779 3.57576 0.956845C3.46356 1.00268 3.40659 1.12701 3.42009 1.29644C3.44311 1.58478 3.45896 1.59508 4.03406 1.69416C4.50474 1.77532 4.54268 1.94697 4.0852 1.92544C3.78062 1.91111 3.75525 1.93424 3.78225 2.20158C3.80803 2.45705 3.77622 2.49354 3.52656 2.49492C3.1689 2.49704 3.0429 2.59135 3.01467 2.87822C2.99636 3.06483 3.06274 3.11554 3.39821 3.17113C3.94119 3.2612 3.91184 3.40792 3.33735 3.47507C2.88355 3.52812 2.31929 3.91025 2.42729 4.09145C2.45409 4.13654 2.33791 4.20496 2.16905 4.24347C1.90364 4.30394 1.88175 4.33386 2.00745 4.46424C2.08743 4.54721 2.21374 4.61585 2.2881 4.61669C2.38996 4.61797 2.38638 4.64247 2.27357 4.71652C2.16874 4.78527 2.2883 4.82442 2.67337 4.84744C3.21615 4.8799 3.2228 4.88436 3.23201 5.22511C3.23722 5.4148 3.20685 5.5699 3.16471 5.5699C3.12257 5.5699 3.088 5.66538 3.088 5.78208C3.088 5.9393 3.01518 5.99797 2.80674 6.00868C2.56158 6.02131 2.55535 6.02905 2.75826 6.06947C3.05476 6.12846 3.59407 6.41713 3.40946 6.41797C3.33142 6.41829 3.29521 6.48481 3.32672 6.57C3.40997 6.79501 3.20746 6.91638 2.53438 7.04496C1.93217 7.15996 1.6727 7.26732 1.99702 7.26732C2.0908 7.26732 2.16751 7.33893 2.16751 7.42645C2.16751 7.55026 2.03118 7.58559 1.55385 7.58559C0.892123 7.58559 0.686343 7.78822 1.32373 7.81219C1.56111 7.8211 1.61962 7.84413 1.47715 7.87266C1.35053 7.89791 1.24702 7.95976 1.24702 8.01015C1.24702 8.06055 1.15426 8.13226 1.04094 8.16961C0.927613 8.20684 0.860315 8.27994 0.891203 8.33182C0.922192 8.3838 0.79629 8.47153 0.611476 8.52681C0.321113 8.61369 0.379718 8.62908 1.04247 8.64011C1.8301 8.65327 1.85935 8.76498 1.11171 8.90438C0.780233 8.96612 0.739833 9.00134 0.846917 9.13512C0.94858 9.26221 0.990411 9.26614 1.06098 9.15538C1.1291 9.04834 1.18279 9.06425 1.30225 9.22678C1.44309 9.41827 1.43644 9.44447 1.2236 9.53995C1.02478 9.62907 1.07244 9.65241 1.55385 9.70227C2.05869 9.75447 2.09408 9.77367 1.89904 9.88962C1.77958 9.9607 1.48042 10.0507 1.23424 10.0895C0.469107 10.2102 0.425026 10.3367 1.14475 10.3463L1.80954 10.3551L0.940193 10.6943L0.0708423 11.0335L0.582225 11.0865L1.09361 11.1396L0.490995 11.2831C0.069922 11.3835 -0.0686628 11.4549 0.0307501 11.5202C0.109094 11.5717 0.265168 11.6178 0.377672 11.6228C0.580793 11.6318 0.580794 11.6324 0.379514 11.714C0.23244 11.7735 0.358854 11.8213 0.839758 11.8878C1.44043 11.9708 1.46426 11.983 1.09361 12.0174C0.8686 12.0383 0.64083 12.1001 0.587339 12.1545C0.527098 12.2158 0.954615 12.2567 1.71238 12.2619C2.65629 12.2683 2.87056 12.2945 2.65333 12.3768C2.4903 12.4386 2.37207 12.5627 2.37207 12.6722C2.37207 12.8254 2.19329 12.8988 1.42734 13.0601C0.907772 13.1695 0.569338 13.2763 0.675194 13.2974C0.829223 13.3282 0.839145 13.3546 0.724902 13.4296C0.619966 13.4985 0.64983 13.5241 0.837917 13.5266C0.978547 13.5284 1.16132 13.5743 1.24416 13.6286C1.41148 13.7383 1.36802 13.7651 0.823598 13.8881C0.675093 13.9216 0.528633 14.0167 0.498052 14.0994C0.451414 14.2253 0.628148 14.2418 1.58627 14.2009C2.43159 14.1648 2.69004 14.1824 2.57662 14.2683C2.44724 14.3665 2.45532 14.3821 2.62776 14.3678C2.96957 14.3394 3.04443 14.3734 2.88345 14.4837C2.77913 14.5552 2.9263 14.5645 3.34369 14.513C4.1077 14.4184 4.06863 14.4174 5.79833 14.5812C6.85833 14.6815 8.41221 14.6979 11.7815 14.6443C14.5783 14.5997 17.2002 14.615 18.5829 14.6838C23.1398 14.9107 23.5931 14.9266 23.528 14.8568C23.4915 14.8177 22.9852 14.7597 22.4029 14.7281C21.8208 14.6966 21.3006 14.6281 21.2472 14.5761C21.114 14.4463 29.9209 14.4564 33.0269 14.5896C34.8086 14.6659 48.266 14.8154 52.9478 14.8109C53.9924 14.8098 58.5481 14.6757 58.7571 14.6399C58.9297 14.6101 59.0188 14.6321 58.9812 14.6951C58.947 14.7526 58.965 14.7996 59.0212 14.7996C59.0775 14.7996 59.1519 14.7519 59.1867 14.6935C59.2696 14.5544 59.647 14.556 59.647 14.6954C59.647 14.8154 62.063 14.8225 63.8274 14.7079C64.6353 14.6553 64.9003 14.6707 64.9378 14.7723C64.965 14.8457 65.054 14.9057 65.1357 14.9057C65.2175 14.9057 65.2558 14.858 65.221 14.7996C65.1863 14.7413 65.2411 14.6854 65.3428 14.6754C65.4446 14.6654 65.5969 14.6466 65.6813 14.6336C65.7657 14.6206 66.0878 14.6042 66.3972 14.5971C66.7399 14.5892 66.9074 14.5497 66.8255 14.496C66.6929 14.4087 67.4183 14.3274 69.4655 14.2005C70.4947 14.1368 70.9604 13.9626 70.1763 13.9348C69.9261 13.9259 69.6752 13.9075 69.6189 13.8939C69.5627 13.8804 69.0794 13.8572 68.545 13.8426L67.5734 13.8158L68.2382 13.7332C68.6038 13.6878 69.3555 13.6357 69.9085 13.6176C70.4615 13.5993 70.9359 13.5476 70.9628 13.5025C70.9897 13.4574 71.1038 13.4205 71.2163 13.4205C71.3288 13.4205 71.3961 13.379 71.3659 13.3282C71.3353 13.2769 71.1167 13.2749 70.8741 13.3236C70.3844 13.4218 69.9177 13.4466 69.9911 13.3704C70.0896 13.2681 72.2086 12.8894 72.3552 12.9477C72.4409 12.9818 72.5341 12.9361 72.5686 12.843C72.6119 12.7258 72.7863 12.6729 73.1699 12.6606L73.71 12.6433L73.1475 12.5807C72.7049 12.5313 72.6437 12.5045 72.8603 12.4547C73.0117 12.4198 73.3569 12.4268 73.6273 12.4701C73.8978 12.5134 74.1295 12.5392 74.1423 12.5274C74.1551 12.5155 74.0922 12.3973 74.0026 12.2646C73.8947 12.1049 73.8054 12.059 73.7381 12.1288C73.6707 12.1987 73.528 12.1969 73.3152 12.1233C72.7438 11.9259 72.834 11.8814 73.7279 11.9202C74.3515 11.9471 74.5848 11.9241 74.5351 11.8406C74.4919 11.7682 74.5559 11.7193 74.7011 11.7135C74.9114 11.705 73.9064 11.4932 73.0963 11.3752C72.9276 11.3506 73.1347 11.3226 73.5566 11.313C73.9785 11.3034 74.3927 11.2491 74.4771 11.1926C74.6043 11.1073 74.5956 11.0892 74.4259 11.0865C74.3134 11.0847 74.1523 11.0328 74.068 10.9712C73.9558 10.8893 74.045 10.8772 74.4 10.9263C75.0348 11.014 75.169 10.9213 74.876 10.598C74.7465 10.4548 74.7011 10.3439 74.7721 10.3439C74.8415 10.3439 74.8698 10.2962 74.835 10.2378C74.8003 10.1795 74.5789 10.131 74.3432 10.1301C74.1074 10.1292 73.8455 10.0787 73.7611 10.0178C73.6508 9.93821 73.7583 9.92654 74.1447 9.9764C74.691 10.0467 74.8977 9.90543 74.4515 9.76656C74.2271 9.69675 74.2264 9.69251 74.4259 9.59311C74.588 9.51248 74.5556 9.50049 74.2699 9.53571C73.8581 9.58653 73.4257 9.3578 73.7153 9.24248C73.806 9.20641 73.9628 9.17692 74.0638 9.17692C74.1648 9.17692 74.3047 9.10531 74.3748 9.01779C74.4748 8.89281 74.4751 8.85865 74.3763 8.85865C74.3066 8.85865 74.2768 8.78778 74.3095 8.69952C74.3473 8.59725 74.3055 8.53773 74.1926 8.53296C74.0468 8.5267 74.0517 8.51068 74.2214 8.43854C74.4114 8.3577 74.4056 8.34327 74.138 8.23379C73.9797 8.16908 73.784 8.11603 73.7033 8.11603C73.6226 8.11603 73.5566 8.06829 73.5566 8.00994C73.5566 7.95159 73.8212 7.89919 74.1447 7.89356L74.7327 7.88327L74.3492 7.72C73.9334 7.54305 73.858 7.33458 74.151 7.17195C74.2529 7.1154 74.8512 7.0353 75.4806 6.99393C76.1099 6.95266 76.6249 6.8819 76.6249 6.83671C76.6249 6.79151 76.4983 6.70664 76.3436 6.64798C76.1082 6.55886 76.1832 6.54008 76.8039 6.53308C77.2246 6.52831 77.5454 6.47876 77.5454 6.41861C77.5454 6.36026 77.4505 6.31252 77.3348 6.31252C77.219 6.31252 77.1514 6.2669 77.1846 6.2111C77.2179 6.1553 77.3127 6.13652 77.3952 6.16941C77.4778 6.20219 77.5454 6.18426 77.5454 6.12952C77.5454 6.07467 77.3267 5.97665 77.0595 5.91161C76.6472 5.81125 76.8055 5.79852 78.1079 5.82717L79.642 5.86101L78.3124 5.66708C75.9858 5.3277 76.0275 5.33651 76.318 5.24622C76.5546 5.1727 76.557 5.16592 76.3496 5.15616C76.0378 5.14141 75.9586 4.95841 76.2398 4.90239C76.3687 4.87661 76.2825 4.84977 76.0453 4.84171C75.811 4.83375 75.6038 4.78018 75.585 4.72268C75.5663 4.66518 75.0217 4.57903 74.3748 4.5314C73.2227 4.44653 73.2075 4.44207 73.6302 4.31445C73.9056 4.23138 74.6231 4.19276 75.6117 4.20772C77.0425 4.22947 77.1728 4.21536 77.3065 4.02536C77.434 3.84426 77.6053 3.81519 78.7257 3.78422C79.7418 3.75621 80 3.71855 80 3.59856C80 3.51581 79.96 3.44813 79.9111 3.44813C79.7673 3.44813 78.022 3.12848 77.8266 3.06642C77.4571 2.94887 77.6682 2.81117 78.2357 2.79939C78.8176 2.7873 78.8194 2.78624 78.4147 2.69946C78.1897 2.65119 77.6374 2.60536 77.1874 2.59772C76.386 2.58393 75.2991 2.43975 75.6021 2.38724C75.8907 2.33727 74.8359 2.19076 74.1309 2.18291C73.5163 2.17602 73.3964 2.14133 73.1896 1.90984L72.9526 1.64462L73.3825 1.63507L73.8123 1.62552L73.4626 1.52124C73.2702 1.46395 73.0286 1.43997 72.9256 1.46787C72.8226 1.49578 72.7384 1.47891 72.7384 1.43032C72.7384 1.38173 72.6578 1.32009 72.5594 1.29336C72.461 1.26673 72.5875 1.23331 72.8406 1.21931L73.3009 1.19374L72.8406 1.11333C71.3364 0.850651 60.6385 0.705627 57.1923 0.901255C56.2079 0.957164 54.9346 1.00405 54.3626 1.00543C53.6287 1.00734 53.3075 1.04713 53.2709 1.1407C53.2319 1.24053 53.198 1.24275 53.1338 1.1494C53.0617 1.04479 50.9378 0.924382 50.7489 1.01413C50.5643 1.10187 23.6222 1.0903 21.8046 1.00172C20.5952 0.942735 19.2145 0.8759 18.7363 0.853197C18.2582 0.830494 16.835 0.786997 15.5738 0.756762C14.3126 0.726421 12.8168 0.671679 12.2498 0.635184C10.6105 0.52952 8.29153 0.519017 8.23313 0.617043ZM60.1392 0.550101C60.213 0.580761 60.3012 0.576942 60.3352 0.54172C60.3691 0.506499 60.3088 0.481462 60.201 0.486023C60.0818 0.491116 60.0576 0.516259 60.1392 0.550101ZM57.3777 0.65619C57.4515 0.686849 57.5398 0.68303 57.5737 0.647809C57.6077 0.612587 57.5473 0.58755 57.4395 0.592112C57.3204 0.597204 57.2961 0.622347 57.3777 0.65619ZM58.196 0.65619C58.2697 0.686849 58.358 0.68303 58.3919 0.647809C58.4259 0.612587 58.3655 0.58755 58.2577 0.592112C58.1386 0.597204 58.1143 0.622347 58.196 0.65619ZM25.3587 0.870808C25.4853 0.896057 25.6924 0.896057 25.819 0.870808C25.9456 0.845452 25.842 0.824765 25.5889 0.824765C25.3357 0.824765 25.2321 0.845452 25.3587 0.870808ZM46.0717 1.28986C46.0024 1.31893 45.8644 1.32073 45.7649 1.29378C45.6653 1.26684 45.722 1.24307 45.8908 1.24095C46.0595 1.23883 46.1409 1.26079 46.0717 1.28986ZM72.3015 1.28434C72.2676 1.31956 72.1793 1.32338 72.1056 1.29272C72.024 1.25888 72.0482 1.23374 72.1674 1.22864C72.2752 1.22408 72.3355 1.24912 72.3015 1.28434ZM57.0607 1.47275C57.0956 1.50893 56.7598 1.54394 56.3145 1.55062C55.8691 1.5572 54.3311 1.58691 52.8967 1.61651C51.4623 1.64621 46.3849 1.70721 41.6137 1.7523C36.8423 1.79739 32.6877 1.86666 32.3809 1.90645C31.8174 1.97943 31.1429 1.8952 31.2665 1.76715C31.3377 1.69342 32.3059 1.67369 37.7342 1.63581C39.806 1.62128 41.1349 1.57248 41.1349 1.51084C41.1349 1.45525 41.1996 1.43552 41.2788 1.46703C41.4975 1.55402 44.9035 1.53927 47.3738 1.44061C49.7889 1.34407 56.9596 1.36794 57.0607 1.47275ZM59.7322 1.3795C59.6586 1.45578 57.9055 1.46501 57.8328 1.38948C57.7992 1.35478 58.2245 1.32635 58.7776 1.32635C59.3307 1.32635 59.7603 1.35022 59.7322 1.3795ZM60.1306 1.39043C60.0967 1.42565 60.0084 1.42947 59.9347 1.39881C59.853 1.36497 59.8773 1.33983 59.9964 1.33473C60.1042 1.33017 60.1646 1.35521 60.1306 1.39043ZM52.361 1.50745C52.4882 1.5328 52.6723 1.53185 52.7701 1.50532C52.8679 1.4788 52.7637 1.45801 52.5387 1.45918C52.3137 1.46034 52.2337 1.48209 52.361 1.50745ZM66.3301 1.51201C66.3561 1.55572 65.7413 1.59157 64.964 1.59157C64.1867 1.59157 63.5162 1.55572 63.4739 1.51201C63.4317 1.4683 64.0464 1.43244 64.8399 1.43244C65.6336 1.43244 66.3041 1.4683 66.3301 1.51201ZM66.8575 1.53853C66.5781 1.66308 66.4995 1.66308 66.4995 1.53853C66.4995 1.48018 66.626 1.43584 66.7807 1.43987C67.03 1.44655 67.0387 1.45769 66.8575 1.53853ZM48.1729 1.61099C48.2466 1.64165 48.3349 1.63783 48.3688 1.60261C48.4028 1.56739 48.3424 1.54235 48.2346 1.54691C48.1155 1.552 48.0912 1.57715 48.1729 1.61099ZM48.7819 1.61544C48.9657 1.639 49.2419 1.63857 49.3956 1.61438C49.5493 1.59009 49.3988 1.57078 49.0613 1.57142C48.7238 1.57195 48.5981 1.59179 48.7819 1.61544ZM28.1361 1.86305C28.0624 1.91026 27.9604 1.92215 27.9096 1.88958C27.8588 1.85701 27.8774 1.79166 27.9509 1.74445C28.0246 1.69724 28.1265 1.68536 28.1774 1.71793C28.2282 1.7505 28.2096 1.81585 28.1361 1.86305ZM29.9867 1.77373C29.9867 1.81945 29.6531 1.85117 29.2452 1.84428C28.6949 1.83494 28.5828 1.81128 28.8106 1.75251C29.2032 1.65109 29.9867 1.66531 29.9867 1.77373ZM31.0095 1.70032C31.0095 1.81362 30.4573 1.96904 30.3016 1.89955C30.1741 1.84269 30.1939 1.81054 30.3959 1.74668C30.7082 1.6478 31.0095 1.6251 31.0095 1.70032ZM27.6819 1.86284C27.6491 1.9178 27.2683 1.96214 26.8357 1.96129C26.4031 1.96034 26.1029 1.92459 26.1687 1.88173C26.3507 1.76301 27.7518 1.74551 27.6819 1.86284ZM60.3904 1.8203C60.3212 1.84937 60.1831 1.85117 60.0836 1.82423C59.9841 1.79728 60.0407 1.77352 60.2095 1.77139C60.3782 1.76927 60.4596 1.79123 60.3904 1.8203ZM67.5478 1.93169C67.4213 1.95694 67.2141 1.95694 67.0876 1.93169C66.9611 1.90634 67.0646 1.88565 67.3177 1.88565C67.5708 1.88565 67.6743 1.90634 67.5478 1.93169ZM4.11077 3.34204C4.11077 3.40039 4.09052 3.44813 4.06566 3.44813C4.04081 3.44813 3.99213 3.40039 3.95735 3.34204C3.92258 3.28369 3.94293 3.23595 4.00246 3.23595C4.06198 3.23595 4.11077 3.28369 4.11077 3.34204ZM1.33017 7.23369C1.40392 7.26435 1.49218 7.26053 1.52614 7.22531C1.56009 7.19009 1.49975 7.16505 1.39195 7.16961C1.2728 7.17471 1.24856 7.19985 1.33017 7.23369ZM74.0402 9.02882C74.0063 9.06404 73.918 9.06786 73.8443 9.0372C73.7627 9.00336 73.7869 8.97821 73.9061 8.97312C74.0139 8.96856 74.0742 8.9936 74.0402 9.02882ZM2.16751 9.28301C2.16751 9.34136 2.11873 9.3891 2.0592 9.3891C1.99968 9.3891 1.97932 9.34136 2.0141 9.28301C2.04887 9.22466 2.09756 9.17692 2.12241 9.17692C2.14726 9.17692 2.16751 9.22466 2.16751 9.28301ZM32.599 10.8814C32.709 11.0661 32.5838 11.1053 32.4434 10.9299C32.3627 10.8291 32.355 10.7682 32.4229 10.7682C32.4826 10.7682 32.562 10.8192 32.599 10.8814ZM39.0846 11.1426C39.1453 11.1037 39.1685 11.0274 39.1361 10.9731C39.1023 10.9163 39.3373 10.8743 39.6885 10.8743C40.0415 10.8743 40.3155 10.9236 40.337 10.9908C40.3577 11.0549 40.5907 11.1327 40.855 11.1635C41.5132 11.2406 41.3632 11.4039 40.6712 11.3635C40.2549 11.3392 40.1121 11.3674 40.1121 11.474C40.1121 11.6541 39.7379 11.6629 39.6685 11.4843C39.6386 11.4074 39.6135 11.4324 39.6088 11.5437C39.6044 11.6492 39.5629 11.7114 39.5167 11.6817C39.4704 11.6521 39.3559 11.7208 39.262 11.8345C39.0617 12.0773 38.578 12.1156 38.578 11.8889C38.578 11.7728 38.4892 11.7514 38.2063 11.7989C37.9146 11.848 37.8454 11.8295 37.8849 11.7128C37.9126 11.6309 38.0005 11.5688 38.0803 11.5747C38.1602 11.5807 38.2883 11.5156 38.3652 11.4303C38.4866 11.2955 38.4595 11.2847 38.1579 11.3479C37.9671 11.3879 37.7342 11.4429 37.6405 11.47C37.5468 11.4973 37.4432 11.4743 37.4103 11.4191C37.3774 11.3638 37.5831 11.2854 37.8676 11.2449C38.152 11.2043 38.4397 11.1088 38.5069 11.0326C38.6071 10.9191 38.6602 10.9229 38.8017 11.0537C38.8966 11.1416 39.0239 11.1816 39.0846 11.1426ZM53.5104 11.0215C53.5104 11.1086 52.8848 11.1524 52.835 11.0688C52.8061 11.0202 52.9462 10.9804 53.1464 10.9804C53.3465 10.9804 53.5104 10.9989 53.5104 11.0215ZM34.8344 11.6602C34.7465 11.8978 34.6177 11.7791 34.6486 11.4888C34.687 11.1279 34.6894 11.1249 34.797 11.3161C34.8516 11.4132 34.8684 11.5681 34.8344 11.6602ZM42.0829 11.2622C42.0137 11.2913 41.8756 11.2931 41.7761 11.2661C41.6766 11.2392 41.7332 11.2154 41.902 11.2133C42.0707 11.2112 42.1521 11.2331 42.0829 11.2622ZM45.5328 11.3041C44.8769 11.4252 42.545 11.4212 42.3622 11.2987C42.2604 11.2305 42.846 11.1998 44.1009 11.2075C45.395 11.2155 45.8476 11.246 45.5328 11.3041ZM47.655 11.2686C47.5003 11.2929 47.2473 11.2929 47.0925 11.2686C46.9378 11.2443 47.0644 11.2244 47.3738 11.2244C47.6832 11.2244 47.8098 11.2443 47.655 11.2686ZM48.6267 11.2628C48.5564 11.2923 48.4413 11.2923 48.371 11.2628C48.3007 11.2334 48.3582 11.2094 48.4988 11.2094C48.6394 11.2094 48.697 11.2334 48.6267 11.2628ZM49.6494 11.2628C49.5792 11.2923 49.4641 11.2923 49.3937 11.2628C49.3235 11.2334 49.3809 11.2094 49.5216 11.2094C49.6622 11.2094 49.7198 11.2334 49.6494 11.2628ZM32.2368 11.3506C32.2368 11.505 31.8555 11.8286 31.6772 11.8256C31.4777 11.8222 31.4788 11.8143 31.7038 11.6197L31.9377 11.4174L31.4992 11.3766C31.1141 11.3407 31.1323 11.3335 31.6487 11.3173C31.9722 11.3071 32.2368 11.322 32.2368 11.3506ZM32.7205 11.3628C32.6865 11.398 32.5983 11.4018 32.5245 11.3712C32.4429 11.3373 32.4672 11.3122 32.5863 11.3071C32.6941 11.3025 32.7545 11.3275 32.7205 11.3628ZM38.9871 11.4048C38.9871 11.4631 39.0359 11.5109 39.0954 11.5109C39.1549 11.5109 39.1753 11.4631 39.1405 11.4048C39.1057 11.3464 39.057 11.2987 39.0322 11.2987C39.0073 11.2987 38.9871 11.3464 38.9871 11.4048ZM70.9719 11.3628C70.938 11.398 70.8497 11.4018 70.776 11.3712C70.6944 11.3373 70.7186 11.3122 70.8378 11.3071C70.9456 11.3025 71.0059 11.3275 70.9719 11.3628ZM71.7412 11.3689C71.6709 11.3984 71.5558 11.3984 71.4855 11.3689C71.4152 11.3395 71.4727 11.3155 71.6133 11.3155C71.7539 11.3155 71.8115 11.3395 71.7412 11.3689ZM27.8112 11.4689C27.7773 11.5041 27.689 11.5079 27.6153 11.4772C27.5336 11.4434 27.5579 11.4183 27.677 11.4132C27.7848 11.4086 27.8452 11.4336 27.8112 11.4689ZM30.6793 11.5308C30.657 11.6001 30.5777 11.6779 30.503 11.7036C30.4267 11.7301 30.3967 11.7015 30.4343 11.6383C30.4718 11.5753 30.3996 11.5058 30.2695 11.4799C30.1046 11.447 30.1361 11.4295 30.3788 11.4192C30.6012 11.4098 30.7056 11.4486 30.6793 11.5308ZM33.9244 11.617C33.8872 11.7386 33.906 11.8291 33.9687 11.8291C34.0287 11.8291 34.0778 11.8689 34.0778 11.9175C34.0778 12.0553 33.662 11.9894 33.5712 11.8372C33.5084 11.7319 33.4406 11.7287 33.2705 11.8231C33.1497 11.8901 33.001 11.9132 32.9402 11.8741C32.8175 11.7954 33.5077 11.4271 33.8034 11.4134C33.944 11.4069 33.9735 11.4564 33.9244 11.617ZM53.2547 11.5109C53.2894 11.5692 53.2691 11.617 53.2096 11.617C53.15 11.617 53.1013 11.5692 53.1013 11.5109C53.1013 11.4525 53.1215 11.4048 53.1464 11.4048C53.1712 11.4048 53.2199 11.4525 53.2547 11.5109ZM54.2263 11.4516C54.2263 11.4773 54.1803 11.5278 54.124 11.5639C54.0678 11.6 54.0217 11.5789 54.0217 11.5171C54.0217 11.4554 54.0678 11.4048 54.124 11.4048C54.1803 11.4048 54.2263 11.4258 54.2263 11.4516ZM69.1862 11.4744C69.1169 11.5034 68.9789 11.5052 68.8794 11.4783C68.7798 11.4514 68.8365 11.4276 69.0053 11.4255C69.174 11.4233 69.2554 11.4453 69.1862 11.4744ZM69.7446 11.4689C69.7107 11.5041 69.6224 11.5079 69.5487 11.4772C69.467 11.4434 69.4913 11.4183 69.6104 11.4132C69.7182 11.4086 69.7786 11.4336 69.7446 11.4689ZM29.3219 11.617C29.3567 11.6753 29.3364 11.723 29.2768 11.723C29.2173 11.723 29.1685 11.6753 29.1685 11.617C29.1685 11.5586 29.1888 11.5109 29.2136 11.5109C29.2385 11.5109 29.2872 11.5586 29.3219 11.617ZM41.414 11.5749C41.3801 11.6102 41.2918 11.614 41.218 11.5833C41.1364 11.5495 41.1607 11.5243 41.2798 11.5193C41.3876 11.5147 41.448 11.5397 41.414 11.5749ZM41.9254 11.5749C41.8914 11.6102 41.8032 11.614 41.7294 11.5833C41.6478 11.5495 41.6721 11.5243 41.7912 11.5193C41.899 11.5147 41.9593 11.5397 41.9254 11.5749ZM42.8736 11.67C42.8736 11.7575 42.9196 11.8291 42.9759 11.8291C43.0321 11.8291 43.078 11.7695 43.0779 11.6965C43.0777 11.5981 43.3023 11.5728 43.9486 11.5983C44.4753 11.6191 44.7955 11.6732 44.7585 11.7352C44.7249 11.7916 44.6162 11.811 44.5169 11.7783C44.4177 11.7456 44.2029 11.7913 44.0398 11.8795C43.777 12.0217 43.7392 12.0219 43.7099 11.8815C43.6729 11.7044 43.2276 11.6642 43.1293 11.8291C43.0608 11.9442 42.639 11.9748 42.5398 11.8718C42.4402 11.7686 42.5769 11.5109 42.7311 11.5109C42.8095 11.5109 42.8736 11.5825 42.8736 11.67ZM52.283 11.67C52.1752 11.8047 52.1977 11.8291 52.43 11.8291C52.5868 11.8291 52.6771 11.8745 52.641 11.9352C52.6062 11.9936 52.4808 12.0413 52.3622 12.0413C52.2437 12.0413 52.1795 12.0755 52.2197 12.1172C52.26 12.1589 52.6655 12.1783 53.1207 12.1605C53.8602 12.1314 53.9416 12.1469 53.8829 12.3057C53.8396 12.4226 53.8609 12.4667 53.9449 12.4348C54.0153 12.408 54.0614 12.3324 54.0473 12.2668C54.0332 12.2011 54.1396 12.1474 54.2835 12.1474C54.4319 12.1474 54.5179 12.1933 54.482 12.2535C54.4472 12.3118 54.4676 12.3596 54.5271 12.3596C54.5866 12.3596 54.6354 12.3118 54.6354 12.2535C54.6354 12.077 55.0179 12.1347 55.0872 12.3217C55.1225 12.4176 55.1363 12.512 55.1174 12.5316C55.0986 12.551 54.6297 12.5799 54.0753 12.5958C53.3395 12.617 53.0558 12.5891 53.0246 12.4922C53.0011 12.4193 52.891 12.3596 52.7799 12.3596C52.6687 12.3596 52.6062 12.4073 52.641 12.4657C52.6779 12.5275 52.5739 12.5718 52.3914 12.5718C52.2193 12.5718 52.0785 12.524 52.0785 12.4657C52.0785 12.4073 51.9082 12.3596 51.7001 12.3596C51.2864 12.3596 51.3392 12.1899 51.7717 12.1299C51.9639 12.1032 52.0353 12.022 52.0597 11.8026C52.0795 11.6237 52.1537 11.5109 52.2512 11.5109C52.3811 11.5109 52.387 11.5402 52.283 11.67ZM62.4596 11.7555C62.5721 11.786 62.4454 11.806 62.1783 11.8002C61.9112 11.7943 61.6925 11.7474 61.6925 11.6961C61.6925 11.6446 61.7903 11.6349 61.9098 11.6742C62.076 11.7289 62.1075 11.7119 62.0436 11.6018C61.9779 11.4886 61.9915 11.4837 62.1075 11.579C62.1886 11.6457 62.3471 11.7251 62.4596 11.7555ZM49.675 11.723C49.6402 11.7814 49.5685 11.8291 49.5155 11.8291C49.4626 11.8291 49.4193 11.7814 49.4193 11.723C49.4193 11.6647 49.4911 11.617 49.5788 11.617C49.6664 11.617 49.7098 11.6647 49.675 11.723ZM38.7825 11.8291C38.9808 11.9621 39.0894 11.9621 39.0894 11.8291C39.0894 11.7708 38.9858 11.7238 38.8592 11.7246C38.6732 11.726 38.6585 11.746 38.7825 11.8291ZM48.3965 11.8752C48.3965 11.9613 48.5184 12.0434 48.6778 12.0645C48.9034 12.0945 48.8756 12.1119 48.5372 12.1527C48.1526 12.1991 48.1153 12.1823 48.1153 11.9633C48.1153 11.8302 48.178 11.723 48.2559 11.723C48.3332 11.723 48.3965 11.7915 48.3965 11.8752ZM51.5671 11.8133C51.5671 11.8666 51.3821 11.9128 51.156 11.9161C50.9297 11.9193 50.7655 11.8872 50.7907 11.8447C50.8595 11.7295 51.5671 11.7009 51.5671 11.8133ZM19.7079 11.9352C19.7427 11.9936 19.6994 12.0413 19.6117 12.0413C19.5241 12.0413 19.4523 11.9936 19.4523 11.9352C19.4523 11.8769 19.4955 11.8291 19.5485 11.8291C19.6015 11.8291 19.6732 11.8769 19.7079 11.9352ZM40.0099 11.9415C40.0099 12.0032 39.9587 12.0211 39.8961 11.9809C39.8336 11.9408 39.7423 11.9738 39.6932 12.0543C39.6225 12.1699 39.6035 12.1616 39.6023 12.0148C39.6014 11.8994 39.6781 11.8291 39.8053 11.8291C39.9178 11.8291 40.0099 11.8797 40.0099 11.9415ZM41.4417 11.9087C41.4417 11.9524 41.3311 11.9883 41.1957 11.9883C41.0605 11.9883 40.9713 11.9524 40.9973 11.9087C41.0233 11.865 41.134 11.8291 41.2432 11.8291C41.3524 11.8291 41.4417 11.865 41.4417 11.9087ZM60.9254 11.9352C60.8906 11.9936 60.7614 12.0379 60.6381 12.0339C60.4221 12.0267 60.4214 12.0232 60.6186 11.9352C60.9 11.8097 61.0002 11.8097 60.9254 11.9352ZM68.4427 11.9352C68.4427 11.9936 68.5464 12.0421 68.6729 12.0429C68.7994 12.0439 68.972 12.0909 69.0564 12.1474C69.1695 12.2233 69.089 12.2561 68.7496 12.2726C68.4964 12.2849 68.1282 12.3139 67.9314 12.3369C67.7345 12.36 65.9855 12.3929 64.0448 12.41C62.1041 12.4271 60.7925 12.4054 61.13 12.3618C61.4675 12.3183 61.9737 12.253 62.255 12.2167C63.3357 12.0774 64.6463 12.0411 64.7104 12.1486C64.7459 12.2082 64.8222 12.2267 64.8798 12.1896C64.9376 12.1527 65.0924 12.1821 65.2239 12.2551C65.3553 12.3281 65.5466 12.3531 65.6488 12.3107C65.751 12.2682 66.1655 12.2252 66.5696 12.215C66.9738 12.2048 67.3346 12.1652 67.3714 12.127C67.4081 12.0889 67.5952 12.0842 67.787 12.1164C68.0645 12.1631 68.1359 12.1398 68.1359 12.0022C68.1359 11.907 68.205 11.8291 68.2893 11.8291C68.3737 11.8291 68.4427 11.8769 68.4427 11.9352ZM71.4514 11.9617C71.4991 12.0678 71.523 12.0678 71.5707 11.9617C71.6349 11.8192 72.4887 11.7738 72.5692 11.9087C72.5952 11.9524 72.4138 11.9715 72.1661 11.951C71.8848 11.9278 71.7156 11.9577 71.7156 12.0306C71.7156 12.2076 71.2346 12.1704 71.1672 11.9883C71.0956 11.7948 71.365 11.7696 71.4514 11.9617ZM47.7317 12.0413C47.697 12.0997 47.5447 12.144 47.3933 12.14C47.1475 12.1333 47.14 12.1227 47.3226 12.0413C47.6068 11.9146 47.8072 11.9146 47.7317 12.0413ZM57.3457 12.0413C57.311 12.0997 57.3773 12.1474 57.4931 12.1474C57.6089 12.1474 57.7037 12.0997 57.7037 12.0413C57.7037 11.916 57.9019 11.9443 58.0703 12.0937C58.2248 12.2307 57.6996 12.4725 57.4152 12.3953C57.3053 12.3655 57.1844 12.393 57.1467 12.4564C57.1089 12.5199 57.0089 12.5718 56.9246 12.5718C56.8402 12.5718 56.8018 12.5203 56.8393 12.4575C56.8864 12.3784 56.7625 12.3657 56.4362 12.4164C56.1503 12.4609 55.965 12.4491 55.965 12.3864C55.965 12.3297 56.2289 12.2549 56.5515 12.2204C56.874 12.1859 57.154 12.1076 57.1736 12.0464C57.1932 11.9853 57.2543 11.9352 57.3091 11.9352C57.364 11.9352 57.3805 11.983 57.3457 12.0413ZM60.2699 12.033C60.1908 12.0851 59.9904 12.11 59.8248 12.0882C59.593 12.0578 59.5116 12.0966 59.4711 12.2572C59.4422 12.3719 59.3793 12.4657 59.3314 12.4657C59.221 12.4657 59.3399 12.1202 59.4861 12.0164C59.5464 11.9735 59.7799 11.9385 60.0049 11.9385C60.284 11.9385 60.3683 11.9685 60.2699 12.033ZM24.2593 12.135C24.2593 12.2613 23.8639 12.3622 23.7985 12.2526C23.77 12.2047 23.8044 12.1414 23.8751 12.1118C24.0846 12.0241 24.2593 12.0347 24.2593 12.135ZM25.5889 12.1474C25.5889 12.2058 25.5456 12.2535 25.4926 12.2535C25.4396 12.2535 25.3679 12.2058 25.3332 12.1474C25.2984 12.0891 25.3418 12.0413 25.4294 12.0413C25.5171 12.0413 25.5889 12.0891 25.5889 12.1474ZM27.4298 12.1358C27.4298 12.2962 26.683 12.3304 26.4098 12.1825C26.1705 12.053 26.1987 12.0426 26.7906 12.042C27.1422 12.0416 27.4298 12.0839 27.4298 12.1358ZM27.7443 12.1766C27.7317 12.3035 27.5914 12.2788 27.5474 12.1421C27.5249 12.0721 27.5618 12.0339 27.6293 12.0572C27.6968 12.0806 27.7485 12.1342 27.7443 12.1766ZM28.65 12.5108C28.6539 12.5648 28.5719 12.517 28.4675 12.4047C28.339 12.2662 28.3142 12.176 28.3908 12.1248C28.4932 12.0561 28.6318 12.2624 28.65 12.5108ZM29.5181 12.1057C29.7262 12.1886 29.7279 12.3596 29.5205 12.3596C29.4328 12.3596 29.3877 12.4045 29.4204 12.4592C29.4531 12.514 29.387 12.5517 29.2736 12.5428C29.0615 12.5262 29.0284 12.2682 29.2197 12.1225C29.345 12.027 29.3234 12.0282 29.5181 12.1057ZM69.6701 12.1474C69.6701 12.2058 69.5895 12.2527 69.4911 12.2519C69.3381 12.2505 69.3344 12.2352 69.4655 12.1474C69.6585 12.018 69.6701 12.018 69.6701 12.1474ZM30.5533 12.3126C30.2916 12.424 30.2777 12.4487 30.451 12.4943C30.6131 12.5371 30.6023 12.5495 30.3949 12.5595C30.2468 12.5666 30.0887 12.4894 30.0211 12.3773C29.9138 12.1991 29.944 12.1828 30.3801 12.1833C30.8517 12.1837 30.8532 12.1849 30.5533 12.3126ZM31.9592 12.4349C32.0004 12.6585 31.9761 12.6872 31.7896 12.6352C31.6699 12.6019 31.3879 12.5725 31.1629 12.57C30.8319 12.5662 30.7884 12.5444 30.935 12.4559C31.0346 12.3958 31.0904 12.3035 31.059 12.2507C31.0276 12.1981 31.2065 12.1593 31.4565 12.1645C31.8548 12.1728 31.917 12.2062 31.9592 12.4349ZM34.9644 12.4193C35.0707 12.57 35.1287 12.585 35.2237 12.4865C35.394 12.3098 35.612 12.3279 35.612 12.5187C35.612 12.6427 35.4821 12.676 35.0239 12.6695C34.7004 12.6649 34.4934 12.637 34.5636 12.6076C34.8643 12.4817 34.6503 12.3596 34.1289 12.3596C33.5205 12.3596 33.3569 12.5313 33.8988 12.6011C34.1055 12.6277 34.0111 12.6503 33.6492 12.6609C33.3225 12.6704 33.0369 12.6272 32.9984 12.5625C32.9489 12.4795 32.8986 12.4795 32.8185 12.5625C32.7573 12.626 32.6383 12.6778 32.5539 12.6778C32.4405 12.6778 32.4304 12.6468 32.5152 12.5588C32.5783 12.4934 32.6045 12.3709 32.5733 12.2867C32.5255 12.1573 32.6953 12.1407 33.6722 12.1794C34.6418 12.2178 34.8497 12.2564 34.9644 12.4193ZM37.2479 12.3861C37.2487 12.5046 36.5545 12.4824 36.4825 12.3616C36.4451 12.2989 36.5845 12.2673 36.834 12.282C37.0613 12.2955 37.2476 12.3424 37.2479 12.3861ZM40.9303 12.3533C40.9303 12.4083 40.8844 12.4825 40.8284 12.5185C40.6499 12.6329 37.8872 12.5804 37.6575 12.4582C37.5407 12.3962 38.8076 12.2869 39.8309 12.2708C40.4615 12.2609 40.9303 12.296 40.9303 12.3533ZM45.4156 12.4149C45.5234 12.5267 45.3299 12.5645 44.3759 12.6183C43.3978 12.6736 42.3622 12.5384 42.3622 12.3555C42.3622 12.2623 45.324 12.3199 45.4156 12.4149ZM49.0613 12.4619C48.4015 12.523 47.9055 12.478 48.0698 12.3719C48.1254 12.3359 48.5093 12.3287 48.9229 12.3558L49.675 12.405L49.0613 12.4619ZM50.8512 12.3596C50.8512 12.4179 50.8309 12.4657 50.8061 12.4657C50.7812 12.4657 50.7325 12.4179 50.6978 12.3596C50.663 12.3012 50.6833 12.2535 50.7429 12.2535C50.8024 12.2535 50.8512 12.3012 50.8512 12.3596ZM53.1524 12.3596C53.1176 12.4179 53.161 12.4657 53.2486 12.4657C53.3363 12.4657 53.4081 12.4179 53.4081 12.3596C53.4081 12.3012 53.3648 12.2535 53.3118 12.2535C53.2589 12.2535 53.1872 12.3012 53.1524 12.3596ZM74.3557 12.3259C74.4294 12.3566 74.5177 12.3528 74.5516 12.3176C74.5856 12.2823 74.5252 12.2573 74.4174 12.2619C74.2983 12.267 74.274 12.2921 74.3557 12.3259ZM50.3969 12.4557C50.3654 12.5085 50.2475 12.5269 50.1351 12.4963C49.8537 12.4201 49.879 12.3596 50.1924 12.3596C50.3363 12.3596 50.4284 12.4029 50.3969 12.4557ZM55.6837 12.4298C55.6135 12.4593 55.4984 12.4593 55.428 12.4298C55.3578 12.4004 55.4153 12.3763 55.5559 12.3763C55.6965 12.3763 55.7541 12.4004 55.6837 12.4298ZM60.3885 12.4298C60.3182 12.4593 60.2031 12.4593 60.1328 12.4298C60.0625 12.4004 60.12 12.3763 60.2606 12.3763C60.4012 12.3763 60.4588 12.4004 60.3885 12.4298ZM73.6077 12.89C73.6425 12.9484 73.6912 12.9961 73.716 12.9961C73.7409 12.9961 73.7611 12.9484 73.7611 12.89C73.7611 12.8317 73.7123 12.7839 73.6528 12.7839C73.5933 12.7839 73.5729 12.8317 73.6077 12.89ZM76.2989 12.8564C76.3727 12.8871 76.4609 12.8832 76.4949 12.848C76.5288 12.8128 76.4685 12.7878 76.3607 12.7923C76.2415 12.7974 76.2173 12.8226 76.2989 12.8564ZM34.4867 14.1896C34.4868 14.2333 33.5549 14.2603 32.4158 14.2494C30.9821 14.2358 30.6123 14.2113 31.2141 14.1699C32.4629 14.0839 34.4865 14.0961 34.4867 14.1896ZM35.5097 14.2285C35.5097 14.2508 35.2911 14.2636 35.0239 14.2567C34.6061 14.2458 34.581 14.234 34.8449 14.1718C35.1316 14.1042 35.5097 14.1366 35.5097 14.2285ZM30.2169 14.2333C30.1466 14.2628 30.0315 14.2628 29.9612 14.2333C29.8909 14.2039 29.9484 14.1799 30.089 14.1799C30.2297 14.1799 30.2872 14.2039 30.2169 14.2333ZM20.9605 14.4595C21.0314 14.5079 20.6118 14.5502 20.0157 14.5548C19.4259 14.5593 18.9618 14.532 18.9845 14.4939C19.0465 14.3899 20.8135 14.3592 20.9605 14.4595ZM67.7077 14.5538C67.7814 14.5845 67.8697 14.5807 67.9036 14.5454C67.9376 14.5102 67.8773 14.4852 67.7695 14.4897C67.6503 14.4948 67.6261 14.52 67.7077 14.5538ZM60.2329 14.6515C60.1989 14.6867 60.1107 14.6906 60.0369 14.6599C59.9553 14.6261 59.9796 14.6009 60.0987 14.5958C60.2065 14.5913 60.2669 14.6163 60.2329 14.6515ZM24.6883 14.8788C25.2899 14.8974 26.3024 14.8975 26.9384 14.8789C27.5743 14.8602 27.0821 14.8449 25.8445 14.8448C24.607 14.8447 24.0867 14.86 24.6883 14.8788ZM33.8546 14.9288C33.9092 14.9854 34.0393 15.013 34.1437 14.9899C34.2843 14.9591 34.2585 14.9323 34.0445 14.8871C33.8578 14.8476 33.7906 14.8624 33.8546 14.9288ZM65.5599 14.8721C65.6336 14.9027 65.7219 14.8989 65.7558 14.8637C65.7898 14.8285 65.7294 14.8034 65.6216 14.808C65.5025 14.8131 65.4783 14.8382 65.5599 14.8721ZM34.6671 14.9807C34.7944 15.0061 34.9785 15.0051 35.0762 14.9786C35.174 14.9521 35.0699 14.9313 34.8449 14.9324C34.6199 14.9336 34.5399 14.9554 34.6671 14.9807ZM36.099 14.9807C36.2262 15.0061 36.4103 15.0051 36.5081 14.9786C36.6059 14.9521 36.5018 14.9313 36.2768 14.9324C36.0517 14.9336 35.9718 14.9554 36.099 14.9807ZM39.2702 14.9826C39.454 15.0062 39.7301 15.0057 39.8838 14.9816C40.0376 14.9573 39.8871 14.938 39.5496 14.9386C39.2121 14.9391 39.0864 14.959 39.2702 14.9826ZM40.7528 14.9819C40.9082 15.0062 41.1384 15.0055 41.2642 14.9804C41.39 14.9553 41.2627 14.9353 40.9815 14.9361C40.7002 14.9369 40.5973 14.9575 40.7528 14.9819ZM54.1496 14.9788C54.248 15.0055 54.4092 15.0055 54.5076 14.9788C54.6059 14.9522 54.5255 14.9303 54.3286 14.9303C54.1317 14.9303 54.0512 14.9522 54.1496 14.9788ZM55.8372 14.9759C55.9075 15.0054 56.0226 15.0054 56.0928 14.9759C56.1632 14.9466 56.1056 14.9225 55.965 14.9225C55.8244 14.9225 55.7669 14.9466 55.8372 14.9759Z" fill="#0D6241"/>
</svg>
